# xmcd
#
# Track frame offsets:
#	150
#	13872
#	26472
#	40480
#	54402
#	67947
#	81960
#	94800
#	107932
#	120192
#	131687
#	146602
#	158880
#	170815
#	183107
#	194265
#	206985
#	219772
#	230912
#	244232
#	258385
#	270562
#	283040
#	295720
#	308017
#	318837
#	330105
#	341535
#
# Disc length: 4727 seconds
#
# Revision: 0
# Processed by: cddbd v1.5.2PL0 Copyright (c) Steve Scherf et al.
# Submitted via: EasyCDDAExtractor 10.0.3.1
#
DISCID=9612751c
DTITLE=Red Foley - Old Shep (The Red Foley Recordings, 1933-50) - Disc 6
DYEAR=2006
DGENRE=Country
TTITLE0=Goodnight Irene (with Ernest Tubb)
TTITLE1=Heska-Holka (Pretty Girl) (with The Sunshine Trio)
TTITLE2=Someone Else Not Me (with The Sunshine Trio)
TTITLE3=Two Pals
TTITLE4=Dear Little Girls
TTITLE5=Good Morning Irene (with Ernest Tubb and Minnie Pearl)
TTITLE6=The Lovebug Itch (with Ernest Tubb and Minnie Pearl)
TTITLE7=Sugarfoot Rag Square Dance
TTITLE8=Smoke On The Water #2
TTITLE9=Idle Rumors (with Evelyn Knight)
TTITLE10=My Heart Cries For You (with Evelyn Knight)
TTITLE11=Tater Pie (with Evelyn Knight)
TTITLE12=Crawdad Song (with Evelyn Knight)
TTITLE13=Paging Mister Jackson (with Cecil Gant)
TTITLE14=Hot Rod Race
TTITLE15=Montana Moon (Alt.)
TTITLE16=It Makes No Never Mind (Alt.)
TTITLE17=I'll Be Back In A Year (Little Darlin') (Alt.)
TTITLE18=Blues In My Heart (Alt.)
TTITLE19=Back To Tennessee (Alt.)
TTITLE20=A Smile Will Chase Away A Tear (Alt.)
TTITLE21=Chattanoogie Shoe Shine Boy (Alt.)
TTITLE22=Our Christmas Waltz (with Judy Martin)
TTITLE23=Here Comes Santa Claus
TTITLE24=Rudolph, The Red-Nosed Reindeer
TTITLE25=Frosty The Snowman
TTITLE26=White Christmas
TTITLE27=I Won't Be Home For Christmas
EXTD=
EXTT0=
EXTT1=
EXTT2=
EXTT3=
EXTT4=
EXTT5=
EXTT6=
EXTT7=
EXTT8=
EXTT9=
EXTT10=
EXTT11=
EXTT12=
EXTT13=
EXTT14=
EXTT15=
EXTT16=
EXTT17=
EXTT18=
EXTT19=
EXTT20=
EXTT21=
EXTT22=
EXTT23=
EXTT24=
EXTT25=
EXTT26=
EXTT27=
PLAYORDER=
